<svg width="552" height="220" viewBox="0 0 552 220" fill="none" xmlns="http://www.w3.org/2000/svg">
<rect width="552" height="220" fill="white"/>
<rect x="386.5" y="108.5" width="45" height="24" stroke="black"/>
<path d="M394.75 125H392.057V116.273H394.869C395.716 116.273 396.44 116.447 397.043 116.797C397.645 117.143 398.107 117.642 398.428 118.293C398.749 118.94 398.909 119.716 398.909 120.619C398.909 121.528 398.747 122.311 398.423 122.967C398.099 123.621 397.628 124.124 397.009 124.476C396.389 124.825 395.636 125 394.75 125ZM393.114 124.062H394.682C395.403 124.062 396.001 123.923 396.476 123.645C396.95 123.366 397.304 122.97 397.537 122.456C397.77 121.942 397.886 121.33 397.886 120.619C397.886 119.915 397.771 119.308 397.541 118.8C397.311 118.288 396.967 117.896 396.51 117.624C396.053 117.348 395.483 117.21 394.801 117.21H393.114V124.062ZM400.63 125H399.522L402.726 116.273H403.817L407.022 125H405.914L403.306 117.653H403.238L400.63 125ZM401.039 121.591H405.505V122.528H401.039V121.591ZM409.438 116.273V125H408.381V116.273H409.438ZM416.33 118.455C416.278 118.023 416.071 117.688 415.707 117.449C415.344 117.21 414.898 117.091 414.369 117.091C413.983 117.091 413.645 117.153 413.355 117.278C413.068 117.403 412.844 117.575 412.682 117.794C412.523 118.013 412.443 118.261 412.443 118.54C412.443 118.773 412.499 118.973 412.609 119.141C412.723 119.305 412.868 119.443 413.044 119.554C413.22 119.662 413.405 119.751 413.598 119.822C413.791 119.891 413.969 119.946 414.131 119.989L415.017 120.227C415.244 120.287 415.497 120.369 415.776 120.474C416.057 120.58 416.325 120.723 416.581 120.905C416.839 121.084 417.053 121.314 417.22 121.595C417.388 121.876 417.472 122.222 417.472 122.631C417.472 123.102 417.348 123.528 417.101 123.909C416.857 124.29 416.499 124.592 416.027 124.817C415.558 125.041 414.989 125.153 414.318 125.153C413.693 125.153 413.152 125.053 412.695 124.851C412.24 124.649 411.882 124.368 411.621 124.007C411.362 123.646 411.216 123.227 411.182 122.75H412.273C412.301 123.08 412.412 123.352 412.605 123.568C412.801 123.781 413.048 123.94 413.347 124.045C413.648 124.148 413.972 124.199 414.318 124.199C414.722 124.199 415.084 124.134 415.405 124.003C415.726 123.869 415.98 123.685 416.168 123.449C416.355 123.21 416.449 122.932 416.449 122.614C416.449 122.324 416.368 122.088 416.206 121.906C416.044 121.724 415.831 121.577 415.567 121.463C415.303 121.349 415.017 121.25 414.71 121.165L413.636 120.858C412.955 120.662 412.415 120.382 412.017 120.018C411.619 119.655 411.42 119.179 411.42 118.591C411.42 118.102 411.553 117.676 411.817 117.312C412.084 116.946 412.442 116.662 412.891 116.46C413.342 116.256 413.847 116.153 414.403 116.153C414.966 116.153 415.466 116.254 415.903 116.456C416.341 116.655 416.688 116.928 416.943 117.274C417.202 117.621 417.338 118.014 417.352 118.455H416.33ZM418.459 116.273H419.669L422.09 120.347H422.192L424.613 116.273H425.823L422.669 121.403V125H421.613V121.403L418.459 116.273Z" fill="black"/>
<rect x="515.5" y="108.5" width="36" height="24" stroke="black"/>
<path d="M521.415 125H520.307L523.511 116.273H524.602L527.807 125H526.699L524.091 117.653H524.023L521.415 125ZM521.824 121.591H526.29V122.528H521.824V121.591ZM529.166 116.273H530.428L533.393 123.517H533.496L536.462 116.273H537.723V125H536.734V118.369H536.649L533.922 125H532.967L530.24 118.369H530.155V125H529.166V116.273ZM539.842 125V116.273H542.791C543.475 116.273 544.035 116.396 544.47 116.643C544.907 116.888 545.231 117.219 545.441 117.636C545.652 118.054 545.757 118.52 545.757 119.034C545.757 119.548 545.652 120.016 545.441 120.436C545.234 120.857 544.913 121.192 544.478 121.442C544.044 121.689 543.487 121.812 542.808 121.812H540.694V120.875H542.774C543.243 120.875 543.619 120.794 543.903 120.632C544.187 120.47 544.393 120.251 544.521 119.976C544.652 119.697 544.717 119.384 544.717 119.034C544.717 118.685 544.652 118.372 544.521 118.097C544.393 117.821 544.186 117.605 543.899 117.449C543.612 117.29 543.231 117.21 542.757 117.21H540.899V125H539.842Z" fill="black"/>
<rect x="362.5" y="0.5" width="93" height="24" stroke="black"/>
<path d="M374.023 11C373.929 10.7131 373.805 10.456 373.652 10.2287C373.501 9.99858 373.321 9.80256 373.111 9.64062C372.903 9.47869 372.668 9.35511 372.403 9.26989C372.139 9.18466 371.849 9.14205 371.534 9.14205C371.017 9.14205 370.547 9.27557 370.124 9.54261C369.7 9.80966 369.364 10.2031 369.114 10.723C368.864 11.2429 368.739 11.8807 368.739 12.6364C368.739 13.392 368.865 14.0298 369.118 14.5497C369.371 15.0696 369.713 15.4631 370.145 15.7301C370.577 15.9972 371.063 16.1307 371.602 16.1307C372.102 16.1307 372.543 16.0241 372.923 15.8111C373.307 15.5952 373.605 15.2912 373.818 14.8991C374.034 14.5043 374.142 14.0398 374.142 13.5057L374.466 13.5739H371.841V12.6364H375.165V13.5739C375.165 14.2926 375.011 14.9176 374.705 15.4489C374.401 15.9801 373.98 16.392 373.443 16.6847C372.909 16.9744 372.295 17.1193 371.602 17.1193C370.83 17.1193 370.151 16.9375 369.565 16.5739C368.983 16.2102 368.528 15.6932 368.202 15.0227C367.878 14.3523 367.716 13.5568 367.716 12.6364C367.716 11.946 367.808 11.3253 367.993 10.7741C368.18 10.2202 368.445 9.74858 368.786 9.35938C369.126 8.97017 369.53 8.67188 369.996 8.46449C370.462 8.2571 370.974 8.15341 371.534 8.15341C371.994 8.15341 372.423 8.22301 372.821 8.36222C373.222 8.49858 373.578 8.69318 373.891 8.94602C374.206 9.19602 374.469 9.49574 374.679 9.84517C374.889 10.1918 375.034 10.5767 375.114 11H374.023ZM376.134 9.21023V8.27273H382.68V9.21023H379.935V17H378.879V9.21023H376.134ZM384.311 17V8.27273H387.26C387.941 8.27273 388.501 8.3892 388.939 8.62216C389.376 8.85227 389.7 9.16903 389.91 9.57244C390.12 9.97585 390.225 10.4347 390.225 10.9489C390.225 11.4631 390.12 11.919 389.91 12.3168C389.7 12.7145 389.377 13.027 388.943 13.2543C388.508 13.4787 387.953 13.5909 387.277 13.5909H384.89V12.6364H387.243C387.708 12.6364 388.083 12.5682 388.368 12.4318C388.654 12.2955 388.862 12.1023 388.99 11.8523C389.12 11.5994 389.186 11.2983 389.186 10.9489C389.186 10.5994 389.12 10.294 388.99 10.0327C388.859 9.77131 388.65 9.5696 388.363 9.42756C388.076 9.28267 387.697 9.21023 387.225 9.21023H385.368V17H384.311ZM388.419 13.0795L390.566 17H389.339L387.225 13.0795H388.419ZM395.362 17V8.27273H400.594V9.21023H396.418V12.1591H400.202V13.0966H396.418V17H395.362ZM402.916 8.27273L405.166 11.9034H405.234L407.484 8.27273H408.728L405.984 12.6364L408.728 17H407.484L405.234 13.4375H405.166L402.916 17H401.672L404.484 12.6364L401.672 8.27273H402.916ZM420.501 11H419.445C419.382 10.696 419.273 10.429 419.116 10.1989C418.963 9.96875 418.776 9.77557 418.554 9.61932C418.335 9.46023 418.092 9.34091 417.825 9.26136C417.558 9.18182 417.28 9.14205 416.99 9.14205C416.462 9.14205 415.983 9.27557 415.554 9.54261C415.128 9.80966 414.788 10.2031 414.536 10.723C414.286 11.2429 414.161 11.8807 414.161 12.6364C414.161 13.392 414.286 14.0298 414.536 14.5497C414.788 15.0696 415.128 15.4631 415.554 15.7301C415.983 15.9972 416.462 16.1307 416.99 16.1307C417.28 16.1307 417.558 16.0909 417.825 16.0114C418.092 15.9318 418.335 15.8139 418.554 15.6577C418.776 15.4986 418.963 15.304 419.116 15.0739C419.273 14.8409 419.382 14.5739 419.445 14.2727H420.501C420.422 14.7187 420.277 15.1179 420.067 15.4702C419.857 15.8224 419.595 16.1222 419.283 16.3693C418.97 16.6136 418.619 16.7997 418.23 16.9276C417.844 17.0554 417.43 17.1193 416.99 17.1193C416.246 17.1193 415.584 16.9375 415.004 16.5739C414.425 16.2102 413.969 15.6932 413.636 15.0227C413.304 14.3523 413.138 13.5568 413.138 12.6364C413.138 11.7159 413.304 10.9205 413.636 10.25C413.969 9.57955 414.425 9.0625 415.004 8.69886C415.584 8.33523 416.246 8.15341 416.99 8.15341C417.43 8.15341 417.844 8.21733 418.23 8.34517C418.619 8.47301 418.97 8.66051 419.283 8.90767C419.595 9.15199 419.857 9.45028 420.067 9.80256C420.277 10.152 420.422 10.5511 420.501 11ZM422.209 17V8.27273H423.266V12.1591H427.919V8.27273H428.976V17H427.919V13.0966H423.266V17H422.209ZM431.45 17H430.342L433.547 8.27273H434.637L437.842 17H436.734L434.126 9.65341H434.058L431.45 17ZM431.859 13.5909H436.325V14.5284H431.859V13.5909ZM440.258 8.27273V17H439.201V8.27273H440.258ZM449.298 8.27273V17H448.275L443.519 10.1477H443.434V17H442.377V8.27273H443.4L448.173 15.142H448.258V8.27273H449.298Z" fill="black"/>
<rect x="0.5" y="108.5" width="147" height="24" stroke="black"/>
<path d="M10.8295 118.455C10.7784 118.023 10.571 117.688 10.2074 117.449C9.84375 117.21 9.39773 117.091 8.86932 117.091C8.48295 117.091 8.14489 117.153 7.85511 117.278C7.56818 117.403 7.34375 117.575 7.18182 117.794C7.02273 118.013 6.94318 118.261 6.94318 118.54C6.94318 118.773 6.99858 118.973 7.10938 119.141C7.22301 119.305 7.3679 119.443 7.54403 119.554C7.72017 119.662 7.90483 119.751 8.09801 119.822C8.29119 119.891 8.46875 119.946 8.63068 119.989L9.51705 120.227C9.74432 120.287 9.99716 120.369 10.2756 120.474C10.5568 120.58 10.8253 120.723 11.081 120.905C11.3395 121.084 11.5526 121.314 11.7202 121.595C11.8878 121.876 11.9716 122.222 11.9716 122.631C11.9716 123.102 11.848 123.528 11.6009 123.909C11.3565 124.29 10.9986 124.592 10.527 124.817C10.0582 125.041 9.48864 125.153 8.81818 125.153C8.19318 125.153 7.65199 125.053 7.1946 124.851C6.74006 124.649 6.3821 124.368 6.12074 124.007C5.86222 123.646 5.71591 123.227 5.68182 122.75H6.77273C6.80114 123.08 6.91193 123.352 7.10511 123.568C7.30114 123.781 7.5483 123.94 7.84659 124.045C8.14773 124.148 8.47159 124.199 8.81818 124.199C9.22159 124.199 9.58381 124.134 9.90483 124.003C10.2259 123.869 10.4801 123.685 10.6676 123.449C10.8551 123.21 10.9489 122.932 10.9489 122.614C10.9489 122.324 10.8679 122.088 10.706 121.906C10.544 121.724 10.331 121.577 10.0668 121.463C9.80256 121.349 9.51705 121.25 9.21023 121.165L8.13636 120.858C7.45455 120.662 6.91477 120.382 6.51705 120.018C6.11932 119.655 5.92045 119.179 5.92045 118.591C5.92045 118.102 6.05256 117.676 6.31676 117.312C6.58381 116.946 6.94176 116.662 7.39062 116.46C7.84233 116.256 8.34659 116.153 8.90341 116.153C9.46591 116.153 9.96591 116.254 10.4034 116.456C10.8409 116.655 11.1875 116.928 11.4432 117.274C11.7017 117.621 11.8381 118.014 11.8523 118.455H10.8295ZM19.4364 116.273H20.4933V122.051C20.4933 122.648 20.3526 123.18 20.0714 123.649C19.793 124.115 19.3995 124.483 18.891 124.753C18.3825 125.02 17.7859 125.153 17.1012 125.153C16.4165 125.153 15.82 125.02 15.3114 124.753C14.8029 124.483 14.408 124.115 14.1268 123.649C13.8484 123.18 13.7092 122.648 13.7092 122.051V116.273H14.766V121.966C14.766 122.392 14.8597 122.771 15.0472 123.104C15.2347 123.433 15.5018 123.693 15.8484 123.884C16.1978 124.071 16.6154 124.165 17.1012 124.165C17.587 124.165 18.0046 124.071 18.354 123.884C18.7035 123.693 18.9705 123.433 19.1552 123.104C19.3427 122.771 19.4364 122.392 19.4364 121.966V116.273ZM27.3764 118.455C27.3253 118.023 27.1179 117.688 26.7543 117.449C26.3906 117.21 25.9446 117.091 25.4162 117.091C25.0298 117.091 24.6918 117.153 24.402 117.278C24.1151 117.403 23.8906 117.575 23.7287 117.794C23.5696 118.013 23.4901 118.261 23.4901 118.54C23.4901 118.773 23.5455 118.973 23.6562 119.141C23.7699 119.305 23.9148 119.443 24.0909 119.554C24.267 119.662 24.4517 119.751 24.6449 119.822C24.8381 119.891 25.0156 119.946 25.1776 119.989L26.0639 120.227C26.2912 120.287 26.544 120.369 26.8224 120.474C27.1037 120.58 27.3722 120.723 27.6278 120.905C27.8864 121.084 28.0994 121.314 28.267 121.595C28.4347 121.876 28.5185 122.222 28.5185 122.631C28.5185 123.102 28.3949 123.528 28.1477 123.909C27.9034 124.29 27.5455 124.592 27.0739 124.817C26.6051 125.041 26.0355 125.153 25.3651 125.153C24.7401 125.153 24.1989 125.053 23.7415 124.851C23.2869 124.649 22.929 124.368 22.6676 124.007C22.4091 123.646 22.2628 123.227 22.2287 122.75H23.3196C23.348 123.08 23.4588 123.352 23.652 123.568C23.848 123.781 24.0952 123.94 24.3935 124.045C24.6946 124.148 25.0185 124.199 25.3651 124.199C25.7685 124.199 26.1307 124.134 26.4517 124.003C26.7727 123.869 27.027 123.685 27.2145 123.449C27.402 123.21 27.4957 122.932 27.4957 122.614C27.4957 122.324 27.4148 122.088 27.2528 121.906C27.0909 121.724 26.8778 121.577 26.6136 121.463C26.3494 121.349 26.0639 121.25 25.7571 121.165L24.6832 120.858C24.0014 120.662 23.4616 120.382 23.0639 120.018C22.6662 119.655 22.4673 119.179 22.4673 118.591C22.4673 118.102 22.5994 117.676 22.8636 117.312C23.1307 116.946 23.4886 116.662 23.9375 116.46C24.3892 116.256 24.8935 116.153 25.4503 116.153C26.0128 116.153 26.5128 116.254 26.9503 116.456C27.3878 116.655 27.7344 116.928 27.9901 117.274C28.2486 117.621 28.3849 118.014 28.3991 118.455H27.3764ZM29.7788 117.21V116.273H36.3242V117.21H33.5799V125H32.5231V117.21H29.7788ZM37.2937 125H36.1857L39.3903 116.273H40.4812L43.6857 125H42.5778L39.9698 117.653H39.9016L37.2937 125ZM37.7028 121.591H42.1687V122.528H37.7028V121.591ZM46.1019 116.273V125H45.0451V116.273H46.1019ZM55.1413 116.273V125H54.1186L49.3629 118.148H49.2777V125H48.2209V116.273H49.2436L54.0163 123.142H54.1016V116.273H55.1413ZM60.631 125V116.273H63.5799C64.2646 116.273 64.8242 116.396 65.2589 116.643C65.6964 116.888 66.0202 117.219 66.2305 117.636C66.4407 118.054 66.5458 118.52 66.5458 119.034C66.5458 119.548 66.4407 120.016 66.2305 120.436C66.0231 120.857 65.7021 121.192 65.2674 121.442C64.8327 121.689 64.2759 121.812 63.5969 121.812H61.4833V120.875H63.5629C64.0316 120.875 64.408 120.794 64.6921 120.632C64.9762 120.47 65.1822 120.251 65.31 119.976C65.4407 119.697 65.506 119.384 65.506 119.034C65.506 118.685 65.4407 118.372 65.31 118.097C65.1822 117.821 64.9748 117.605 64.6879 117.449C64.4009 117.29 64.0202 117.21 63.5458 117.21H61.6879V125H60.631ZM68.2482 125V116.273H73.5153V117.21H69.305V120.159H73.2425V121.097H69.305V124.062H73.5835V125H68.2482ZM78.1133 125H75.4201V116.273H78.2326C79.0792 116.273 79.8036 116.447 80.4059 116.797C81.0082 117.143 81.4698 117.642 81.7908 118.293C82.1119 118.94 82.2724 119.716 82.2724 120.619C82.2724 121.528 82.1104 122.311 81.7866 122.967C81.4627 123.621 80.9911 124.124 80.3718 124.476C79.7525 124.825 78.9996 125 78.1133 125ZM76.4769 124.062H78.0451C78.7667 124.062 79.3647 123.923 79.8391 123.645C80.3136 123.366 80.6673 122.97 80.9002 122.456C81.1332 121.942 81.2496 121.33 81.2496 120.619C81.2496 119.915 81.1346 119.308 80.9045 118.8C80.6744 118.288 80.3306 117.896 79.8732 117.624C79.4158 117.348 78.8462 117.21 78.1644 117.21H76.4769V124.062ZM83.9929 125H82.8849L86.0895 116.273H87.1804L90.3849 125H89.277L86.669 117.653H86.6009L83.9929 125ZM84.402 121.591H88.8679V122.528H84.402V121.591ZM91.7443 125V116.273H92.8011V124.062H96.858V125H91.7443ZM102.091 120.636C102.091 119.562 102.23 118.575 102.509 117.675C102.79 116.771 103.19 115.94 103.71 115.182H104.597C104.392 115.463 104.2 115.81 104.021 116.222C103.845 116.631 103.69 117.081 103.557 117.572C103.423 118.061 103.318 118.567 103.241 119.089C103.168 119.612 103.131 120.128 103.131 120.636C103.131 121.312 103.196 121.999 103.327 122.695C103.457 123.391 103.634 124.037 103.855 124.634C104.077 125.23 104.324 125.716 104.597 126.091H103.71C103.19 125.332 102.79 124.503 102.509 123.602C102.23 122.699 102.091 121.71 102.091 120.636ZM113.24 119H112.183C112.12 118.696 112.011 118.429 111.855 118.199C111.701 117.969 111.514 117.776 111.292 117.619C111.074 117.46 110.831 117.341 110.564 117.261C110.297 117.182 110.018 117.142 109.728 117.142C109.2 117.142 108.721 117.276 108.292 117.543C107.866 117.81 107.527 118.203 107.274 118.723C107.024 119.243 106.899 119.881 106.899 120.636C106.899 121.392 107.024 122.03 107.274 122.55C107.527 123.07 107.866 123.463 108.292 123.73C108.721 123.997 109.2 124.131 109.728 124.131C110.018 124.131 110.297 124.091 110.564 124.011C110.831 123.932 111.074 123.814 111.292 123.658C111.514 123.499 111.701 123.304 111.855 123.074C112.011 122.841 112.12 122.574 112.183 122.273H113.24C113.16 122.719 113.015 123.118 112.805 123.47C112.595 123.822 112.333 124.122 112.021 124.369C111.708 124.614 111.358 124.8 110.968 124.928C110.582 125.055 110.169 125.119 109.728 125.119C108.984 125.119 108.322 124.938 107.743 124.574C107.163 124.21 106.707 123.693 106.375 123.023C106.042 122.352 105.876 121.557 105.876 120.636C105.876 119.716 106.042 118.92 106.375 118.25C106.707 117.58 107.163 117.062 107.743 116.699C108.322 116.335 108.984 116.153 109.728 116.153C110.169 116.153 110.582 116.217 110.968 116.345C111.358 116.473 111.708 116.661 112.021 116.908C112.333 117.152 112.595 117.45 112.805 117.803C113.015 118.152 113.16 118.551 113.24 119ZM121.97 119H120.913C120.851 118.696 120.741 118.429 120.585 118.199C120.432 117.969 120.244 117.776 120.023 117.619C119.804 117.46 119.561 117.341 119.294 117.261C119.027 117.182 118.749 117.142 118.459 117.142C117.93 117.142 117.452 117.276 117.023 117.543C116.597 117.81 116.257 118.203 116.004 118.723C115.754 119.243 115.629 119.881 115.629 120.636C115.629 121.392 115.754 122.03 116.004 122.55C116.257 123.07 116.597 123.463 117.023 123.73C117.452 123.997 117.93 124.131 118.459 124.131C118.749 124.131 119.027 124.091 119.294 124.011C119.561 123.932 119.804 123.814 120.023 123.658C120.244 123.499 120.432 123.304 120.585 123.074C120.741 122.841 120.851 122.574 120.913 122.273H121.97C121.891 122.719 121.746 123.118 121.536 123.47C121.325 123.822 121.064 124.122 120.751 124.369C120.439 124.614 120.088 124.8 119.699 124.928C119.313 125.055 118.899 125.119 118.459 125.119C117.714 125.119 117.053 124.938 116.473 124.574C115.893 124.21 115.438 123.693 115.105 123.023C114.773 122.352 114.607 121.557 114.607 120.636C114.607 119.716 114.773 118.92 115.105 118.25C115.438 117.58 115.893 117.062 116.473 116.699C117.053 116.335 117.714 116.153 118.459 116.153C118.899 116.153 119.313 116.217 119.699 116.345C120.088 116.473 120.439 116.661 120.751 116.908C121.064 117.152 121.325 117.45 121.536 117.803C121.746 118.152 121.891 118.551 121.97 119ZM126.422 125.119C126.064 125.114 125.706 125.045 125.348 124.915C124.99 124.784 124.664 124.564 124.368 124.254C124.073 123.942 123.836 123.52 123.657 122.989C123.478 122.455 123.388 121.784 123.388 120.977C123.388 120.205 123.461 119.52 123.605 118.923C123.75 118.324 123.961 117.82 124.236 117.411C124.512 116.999 124.844 116.686 125.233 116.473C125.625 116.26 126.067 116.153 126.559 116.153C127.047 116.153 127.482 116.251 127.863 116.447C128.246 116.641 128.559 116.911 128.8 117.257C129.042 117.604 129.198 118.003 129.269 118.455H128.229C128.132 118.062 127.945 117.737 127.667 117.479C127.388 117.22 127.019 117.091 126.559 117.091C125.882 117.091 125.35 117.385 124.961 117.973C124.574 118.561 124.38 119.386 124.377 120.449H124.445C124.604 120.207 124.793 120.001 125.012 119.831C125.233 119.658 125.478 119.524 125.745 119.43C126.012 119.337 126.294 119.29 126.593 119.29C127.093 119.29 127.55 119.415 127.965 119.665C128.38 119.912 128.712 120.254 128.962 120.692C129.212 121.126 129.337 121.625 129.337 122.188C129.337 122.727 129.216 123.222 128.975 123.67C128.733 124.116 128.394 124.472 127.956 124.736C127.522 124.997 127.01 125.125 126.422 125.119ZM126.422 124.182C126.78 124.182 127.101 124.092 127.385 123.913C127.672 123.734 127.898 123.494 128.063 123.193C128.23 122.892 128.314 122.557 128.314 122.188C128.314 121.827 128.233 121.499 128.071 121.203C127.912 120.905 127.692 120.668 127.411 120.491C127.132 120.315 126.814 120.227 126.456 120.227C126.186 120.227 125.935 120.281 125.702 120.389C125.469 120.494 125.265 120.639 125.088 120.824C124.915 121.009 124.779 121.22 124.679 121.459C124.58 121.695 124.53 121.943 124.53 122.205C124.53 122.551 124.611 122.875 124.773 123.176C124.938 123.477 125.162 123.72 125.446 123.905C125.733 124.089 126.059 124.182 126.422 124.182ZM130.808 123.21V122.341L134.643 116.273H135.274V117.619H134.848L131.95 122.205V122.273H137.115V123.21H130.808ZM134.916 125V122.946V122.541V116.273H135.922V125H134.916ZM140.877 120.636C140.877 121.71 140.736 122.699 140.455 123.602C140.176 124.503 139.777 125.332 139.257 126.091H138.371C138.576 125.81 138.766 125.463 138.942 125.051C139.121 124.642 139.277 124.193 139.411 123.705C139.544 123.213 139.648 122.706 139.722 122.183C139.799 121.658 139.837 121.142 139.837 120.636C139.837 119.96 139.772 119.274 139.641 118.578C139.51 117.882 139.334 117.236 139.113 116.639C138.891 116.043 138.644 115.557 138.371 115.182H139.257C139.777 115.94 140.176 116.771 140.455 117.675C140.736 118.575 140.877 119.562 140.877 120.636Z" fill="black"/>
<rect x="193.5" y="108.5" width="123" height="24" stroke="black"/>
<path d="M199.057 125V116.273H202.006C202.69 116.273 203.25 116.396 203.685 116.643C204.122 116.888 204.446 117.219 204.656 117.636C204.866 118.054 204.972 118.52 204.972 119.034C204.972 119.548 204.866 120.016 204.656 120.436C204.449 120.857 204.128 121.192 203.693 121.442C203.259 121.689 202.702 121.812 202.023 121.812H199.909V120.875H201.989C202.457 120.875 202.834 120.794 203.118 120.632C203.402 120.47 203.608 120.251 203.736 119.976C203.866 119.697 203.932 119.384 203.932 119.034C203.932 118.685 203.866 118.372 203.736 118.097C203.608 117.821 203.401 117.605 203.114 117.449C202.827 117.29 202.446 117.21 201.972 117.21H200.114V125H199.057ZM206.674 125V116.273H211.941V117.21H207.731V120.159H211.668V121.097H207.731V124.062H212.009V125H206.674ZM216.539 125H213.846V116.273H216.658C217.505 116.273 218.229 116.447 218.832 116.797C219.434 117.143 219.896 117.642 220.217 118.293C220.538 118.94 220.698 119.716 220.698 120.619C220.698 121.528 220.536 122.311 220.212 122.967C219.888 123.621 219.417 124.124 218.798 124.476C218.178 124.825 217.425 125 216.539 125ZM214.903 124.062H216.471C217.192 124.062 217.79 123.923 218.265 123.645C218.739 123.366 219.093 122.97 219.326 122.456C219.559 121.942 219.675 121.33 219.675 120.619C219.675 119.915 219.56 119.308 219.33 118.8C219.1 118.288 218.756 117.896 218.299 117.624C217.842 117.348 217.272 117.21 216.59 117.21H214.903V124.062ZM222.419 125H221.311L224.515 116.273H225.606L228.811 125H227.703L225.095 117.653H225.027L222.419 125ZM222.828 121.591H227.294V122.528H222.828V121.591ZM230.17 125V116.273H231.227V124.062H235.284V125H230.17ZM247.318 119H246.261C246.199 118.696 246.089 118.429 245.933 118.199C245.779 117.969 245.592 117.776 245.37 117.619C245.152 117.46 244.909 117.341 244.642 117.261C244.375 117.182 244.096 117.142 243.806 117.142C243.278 117.142 242.799 117.276 242.37 117.543C241.944 117.81 241.605 118.203 241.352 118.723C241.102 119.243 240.977 119.881 240.977 120.636C240.977 121.392 241.102 122.03 241.352 122.55C241.605 123.07 241.944 123.463 242.37 123.73C242.799 123.997 243.278 124.131 243.806 124.131C244.096 124.131 244.375 124.091 244.642 124.011C244.909 123.932 245.152 123.814 245.37 123.658C245.592 123.499 245.779 123.304 245.933 123.074C246.089 122.841 246.199 122.574 246.261 122.273H247.318C247.238 122.719 247.093 123.118 246.883 123.47C246.673 123.822 246.412 124.122 246.099 124.369C245.787 124.614 245.436 124.8 245.047 124.928C244.66 125.055 244.247 125.119 243.806 125.119C243.062 125.119 242.4 124.938 241.821 124.574C241.241 124.21 240.785 123.693 240.453 123.023C240.12 122.352 239.954 121.557 239.954 120.636C239.954 119.716 240.12 118.92 240.453 118.25C240.785 117.58 241.241 117.062 241.821 116.699C242.4 116.335 243.062 116.153 243.806 116.153C244.247 116.153 244.66 116.217 245.047 116.345C245.436 116.473 245.787 116.661 246.099 116.908C246.412 117.152 246.673 117.45 246.883 117.803C247.093 118.152 247.238 118.551 247.318 119ZM256.389 120.636C256.389 121.557 256.223 122.352 255.891 123.023C255.558 123.693 255.102 124.21 254.523 124.574C253.943 124.938 253.281 125.119 252.537 125.119C251.793 125.119 251.131 124.938 250.551 124.574C249.972 124.21 249.516 123.693 249.183 123.023C248.851 122.352 248.685 121.557 248.685 120.636C248.685 119.716 248.851 118.92 249.183 118.25C249.516 117.58 249.972 117.062 250.551 116.699C251.131 116.335 251.793 116.153 252.537 116.153C253.281 116.153 253.943 116.335 254.523 116.699C255.102 117.062 255.558 117.58 255.891 118.25C256.223 118.92 256.389 119.716 256.389 120.636ZM255.366 120.636C255.366 119.881 255.24 119.243 254.987 118.723C254.737 118.203 254.398 117.81 253.969 117.543C253.543 117.276 253.065 117.142 252.537 117.142C252.009 117.142 251.53 117.276 251.101 117.543C250.675 117.81 250.335 118.203 250.082 118.723C249.832 119.243 249.707 119.881 249.707 120.636C249.707 121.392 249.832 122.03 250.082 122.55C250.335 123.07 250.675 123.463 251.101 123.73C251.53 123.997 252.009 124.131 252.537 124.131C253.065 124.131 253.543 123.997 253.969 123.73C254.398 123.463 254.737 123.07 254.987 122.55C255.24 122.03 255.366 121.392 255.366 120.636ZM265.087 116.273V125H264.064L259.308 118.148H259.223V125H258.166V116.273H259.189L263.962 123.142H264.047V116.273H265.087ZM267.559 116.273L270.15 123.619H270.252L272.843 116.273H273.951L270.747 125H269.656L266.451 116.273H267.559ZM275.311 125V116.273H280.578V117.21H276.368V120.159H280.305V121.097H276.368V124.062H280.646V125H275.311ZM282.483 125V116.273H285.431C286.113 116.273 286.673 116.389 287.11 116.622C287.548 116.852 287.872 117.169 288.082 117.572C288.292 117.976 288.397 118.435 288.397 118.949C288.397 119.463 288.292 119.919 288.082 120.317C287.872 120.714 287.549 121.027 287.115 121.254C286.68 121.479 286.125 121.591 285.449 121.591H283.062V120.636H285.414C285.88 120.636 286.255 120.568 286.539 120.432C286.826 120.295 287.034 120.102 287.162 119.852C287.292 119.599 287.358 119.298 287.358 118.949C287.358 118.599 287.292 118.294 287.162 118.033C287.031 117.771 286.822 117.57 286.535 117.428C286.248 117.283 285.869 117.21 285.397 117.21H283.539V125H282.483ZM286.591 121.08L288.738 125H287.511L285.397 121.08H286.591ZM289.681 117.21V116.273H296.227V117.21H293.482V125H292.425V117.21H289.681ZM297.858 125V116.273H303.125V117.21H298.914V120.159H302.852V121.097H298.914V124.062H303.193V125H297.858ZM305.029 125V116.273H307.978C308.66 116.273 309.22 116.389 309.657 116.622C310.095 116.852 310.419 117.169 310.629 117.572C310.839 117.976 310.944 118.435 310.944 118.949C310.944 119.463 310.839 119.919 310.629 120.317C310.419 120.714 310.096 121.027 309.662 121.254C309.227 121.479 308.672 121.591 307.995 121.591H305.609V120.636H307.961C308.427 120.636 308.802 120.568 309.086 120.432C309.373 120.295 309.581 120.102 309.708 119.852C309.839 119.599 309.904 119.298 309.904 118.949C309.904 118.599 309.839 118.294 309.708 118.033C309.578 117.771 309.369 117.57 309.082 117.428C308.795 117.283 308.416 117.21 307.944 117.21H306.086V125H305.029ZM309.137 121.08L311.285 125H310.058L307.944 121.08H309.137Z" fill="black"/>
<rect x="232.5" y="195.5" width="45" height="24" stroke="black"/>
<path d="M238.057 212V203.273H241.006C241.69 203.273 242.25 203.396 242.685 203.643C243.122 203.888 243.446 204.219 243.656 204.636C243.866 205.054 243.972 205.52 243.972 206.034C243.972 206.548 243.866 207.016 243.656 207.436C243.449 207.857 243.128 208.192 242.693 208.442C242.259 208.689 241.702 208.812 241.023 208.812H238.909V207.875H240.989C241.457 207.875 241.834 207.794 242.118 207.632C242.402 207.47 242.608 207.251 242.736 206.976C242.866 206.697 242.932 206.384 242.932 206.034C242.932 205.685 242.866 205.372 242.736 205.097C242.608 204.821 242.401 204.605 242.114 204.449C241.827 204.29 241.446 204.21 240.972 204.21H239.114V212H238.057ZM248.126 212.136C247.536 212.136 247.017 211.996 246.571 211.714C246.128 211.433 245.781 211.04 245.531 210.534C245.284 210.028 245.161 209.437 245.161 208.761C245.161 208.08 245.284 207.484 245.531 206.976C245.781 206.467 246.128 206.072 246.571 205.791C247.017 205.51 247.536 205.369 248.126 205.369C248.717 205.369 249.234 205.51 249.678 205.791C250.124 206.072 250.47 206.467 250.717 206.976C250.967 207.484 251.092 208.08 251.092 208.761C251.092 209.437 250.967 210.028 250.717 210.534C250.47 211.04 250.124 211.433 249.678 211.714C249.234 211.996 248.717 212.136 248.126 212.136ZM248.126 211.233C248.575 211.233 248.945 211.118 249.234 210.888C249.524 210.658 249.739 210.355 249.878 209.98C250.017 209.605 250.087 209.199 250.087 208.761C250.087 208.324 250.017 207.916 249.878 207.538C249.739 207.161 249.524 206.855 249.234 206.622C248.945 206.389 248.575 206.273 248.126 206.273C247.678 206.273 247.308 206.389 247.018 206.622C246.729 206.855 246.514 207.161 246.375 207.538C246.236 207.916 246.166 208.324 246.166 208.761C246.166 209.199 246.236 209.605 246.375 209.98C246.514 210.355 246.729 210.658 247.018 210.888C247.308 211.118 247.678 211.233 248.126 211.233ZM253.888 212L251.893 205.455H252.95L254.365 210.466H254.433L255.831 205.455H256.905L258.286 210.449H258.354L259.768 205.455H260.825L258.831 212H257.842L256.411 206.972H256.308L254.876 212H253.888ZM264.676 212.136C264.046 212.136 263.502 211.997 263.044 211.719C262.59 211.438 262.239 211.045 261.992 210.543C261.748 210.037 261.625 209.449 261.625 208.778C261.625 208.108 261.748 207.517 261.992 207.006C262.239 206.491 262.583 206.091 263.023 205.804C263.466 205.514 263.983 205.369 264.574 205.369C264.915 205.369 265.252 205.426 265.584 205.54C265.917 205.653 266.219 205.838 266.492 206.094C266.765 206.347 266.982 206.682 267.144 207.099C267.306 207.517 267.387 208.031 267.387 208.642V209.068H262.341V208.199H266.364C266.364 207.83 266.29 207.5 266.142 207.21C265.998 206.92 265.79 206.692 265.52 206.524C265.253 206.357 264.938 206.273 264.574 206.273C264.174 206.273 263.827 206.372 263.534 206.571C263.245 206.767 263.022 207.023 262.865 207.338C262.709 207.653 262.631 207.991 262.631 208.352V208.932C262.631 209.426 262.716 209.845 262.887 210.189C263.06 210.53 263.3 210.79 263.607 210.969C263.914 211.145 264.27 211.233 264.676 211.233C264.941 211.233 265.179 211.196 265.392 211.122C265.608 211.045 265.794 210.932 265.951 210.781C266.107 210.628 266.228 210.437 266.313 210.21L267.284 210.483C267.182 210.812 267.01 211.102 266.769 211.352C266.527 211.599 266.229 211.793 265.874 211.932C265.519 212.068 265.12 212.136 264.676 212.136ZM268.917 212V205.455H269.888V206.443H269.956C270.076 206.119 270.292 205.857 270.604 205.655C270.917 205.453 271.269 205.352 271.661 205.352C271.735 205.352 271.827 205.354 271.938 205.357C272.049 205.359 272.132 205.364 272.189 205.369V206.392C272.155 206.384 272.077 206.371 271.955 206.354C271.836 206.334 271.709 206.324 271.576 206.324C271.257 206.324 270.973 206.391 270.723 206.524C270.476 206.655 270.28 206.837 270.135 207.07C269.993 207.3 269.922 207.562 269.922 207.858V212H268.917Z" fill="black"/>
<rect x="386.5" y="195.5" width="45" height="24" stroke="black"/>
<path d="M392.057 212V203.273H395.006C395.69 203.273 396.25 203.396 396.685 203.643C397.122 203.888 397.446 204.219 397.656 204.636C397.866 205.054 397.972 205.52 397.972 206.034C397.972 206.548 397.866 207.016 397.656 207.436C397.449 207.857 397.128 208.192 396.693 208.442C396.259 208.689 395.702 208.812 395.023 208.812H392.909V207.875H394.989C395.457 207.875 395.834 207.794 396.118 207.632C396.402 207.47 396.608 207.251 396.736 206.976C396.866 206.697 396.932 206.384 396.932 206.034C396.932 205.685 396.866 205.372 396.736 205.097C396.608 204.821 396.401 204.605 396.114 204.449C395.827 204.29 395.446 204.21 394.972 204.21H393.114V212H392.057ZM402.126 212.136C401.536 212.136 401.017 211.996 400.571 211.714C400.128 211.433 399.781 211.04 399.531 210.534C399.284 210.028 399.161 209.437 399.161 208.761C399.161 208.08 399.284 207.484 399.531 206.976C399.781 206.467 400.128 206.072 400.571 205.791C401.017 205.51 401.536 205.369 402.126 205.369C402.717 205.369 403.234 205.51 403.678 205.791C404.124 206.072 404.47 206.467 404.717 206.976C404.967 207.484 405.092 208.08 405.092 208.761C405.092 209.437 404.967 210.028 404.717 210.534C404.47 211.04 404.124 211.433 403.678 211.714C403.234 211.996 402.717 212.136 402.126 212.136ZM402.126 211.233C402.575 211.233 402.945 211.118 403.234 210.888C403.524 210.658 403.739 210.355 403.878 209.98C404.017 209.605 404.087 209.199 404.087 208.761C404.087 208.324 404.017 207.916 403.878 207.538C403.739 207.161 403.524 206.855 403.234 206.622C402.945 206.389 402.575 206.273 402.126 206.273C401.678 206.273 401.308 206.389 401.018 206.622C400.729 206.855 400.514 207.161 400.375 207.538C400.236 207.916 400.166 208.324 400.166 208.761C400.166 209.199 400.236 209.605 400.375 209.98C400.514 210.355 400.729 210.658 401.018 210.888C401.308 211.118 401.678 211.233 402.126 211.233ZM407.888 212L405.893 205.455H406.95L408.365 210.466H408.433L409.831 205.455H410.905L412.286 210.449H412.354L413.768 205.455H414.825L412.831 212H411.842L410.411 206.972H410.308L408.876 212H407.888ZM418.676 212.136C418.046 212.136 417.502 211.997 417.044 211.719C416.59 211.438 416.239 211.045 415.992 210.543C415.748 210.037 415.625 209.449 415.625 208.778C415.625 208.108 415.748 207.517 415.992 207.006C416.239 206.491 416.583 206.091 417.023 205.804C417.466 205.514 417.983 205.369 418.574 205.369C418.915 205.369 419.252 205.426 419.584 205.54C419.917 205.653 420.219 205.838 420.492 206.094C420.765 206.347 420.982 206.682 421.144 207.099C421.306 207.517 421.387 208.031 421.387 208.642V209.068H416.341V208.199H420.364C420.364 207.83 420.29 207.5 420.142 207.21C419.998 206.92 419.79 206.692 419.52 206.524C419.253 206.357 418.938 206.273 418.574 206.273C418.174 206.273 417.827 206.372 417.534 206.571C417.245 206.767 417.022 207.023 416.865 207.338C416.709 207.653 416.631 207.991 416.631 208.352V208.932C416.631 209.426 416.716 209.845 416.887 210.189C417.06 210.53 417.3 210.79 417.607 210.969C417.914 211.145 418.27 211.233 418.676 211.233C418.941 211.233 419.179 211.196 419.392 211.122C419.608 211.045 419.794 210.932 419.951 210.781C420.107 210.628 420.228 210.437 420.313 210.21L421.284 210.483C421.182 210.812 421.01 211.102 420.769 211.352C420.527 211.599 420.229 211.793 419.874 211.932C419.519 212.068 419.12 212.136 418.676 212.136ZM422.917 212V205.455H423.888V206.443H423.956C424.076 206.119 424.292 205.857 424.604 205.655C424.917 205.453 425.269 205.352 425.661 205.352C425.735 205.352 425.827 205.354 425.938 205.357C426.049 205.359 426.132 205.364 426.189 205.369V206.392C426.155 206.384 426.077 206.371 425.955 206.354C425.836 206.334 425.709 206.324 425.576 206.324C425.257 206.324 424.973 206.391 424.723 206.524C424.476 206.655 424.28 206.837 424.135 207.07C423.993 207.3 423.922 207.562 423.922 207.858V212H422.917Z" fill="black"/>
<rect width="27" height="16" transform="translate(157 105)" fill="white"/>
<path d="M159.301 109.224L158.281 110.088L157.777 109.536L159.313 108.36H160.165V113.532H159.301V109.224ZM165.457 115.872H163.105V115.176L165.301 111.828H166.249V115.08H166.993V115.872H166.249V117H165.457V115.872ZM165.385 112.836H165.361L163.969 115.08H165.385V112.836ZM164.473 108.12L165.193 108.504L159.925 117.384L159.205 117L164.473 108.12ZM171.629 111.312H172.709V117H171.629V111.312ZM171.377 109.272C171.377 109.056 171.453 108.872 171.605 108.72C171.765 108.56 171.953 108.48 172.169 108.48C172.385 108.48 172.569 108.56 172.721 108.72C172.881 108.872 172.961 109.056 172.961 109.272C172.961 109.488 172.881 109.676 172.721 109.836C172.569 109.988 172.385 110.064 172.169 110.064C171.953 110.064 171.765 109.988 171.605 109.836C171.453 109.676 171.377 109.488 171.377 109.272ZM174.427 111.312H175.507V112.188H175.531C175.667 111.884 175.903 111.64 176.239 111.456C176.575 111.264 176.963 111.168 177.403 111.168C177.675 111.168 177.935 111.212 178.183 111.3C178.439 111.38 178.659 111.508 178.843 111.684C179.035 111.86 179.187 112.088 179.299 112.368C179.411 112.64 179.467 112.964 179.467 113.34V117H178.387V113.64C178.387 113.376 178.351 113.152 178.279 112.968C178.207 112.776 178.111 112.624 177.991 112.512C177.871 112.392 177.731 112.308 177.571 112.26C177.419 112.204 177.259 112.176 177.091 112.176C176.867 112.176 176.659 112.212 176.467 112.284C176.275 112.356 176.107 112.472 175.963 112.632C175.819 112.784 175.707 112.98 175.627 113.22C175.547 113.46 175.507 113.744 175.507 114.072V117H174.427V111.312ZM181.947 117.072C181.731 117.072 181.543 116.996 181.383 116.844C181.231 116.684 181.155 116.496 181.155 116.28C181.155 116.064 181.231 115.88 181.383 115.728C181.543 115.568 181.731 115.488 181.947 115.488C182.163 115.488 182.347 115.568 182.499 115.728C182.659 115.88 182.739 116.064 182.739 116.28C182.739 116.496 182.659 116.684 182.499 116.844C182.347 116.996 182.163 117.072 181.947 117.072Z" fill="black"/>
<path d="M148 121H193" stroke="black" stroke-width="2"/>
<rect width="51" height="16" transform="translate(326 105)" fill="white"/>
<path d="M327.607 117L332.839 108.432H333.739L328.507 117H327.607ZM328.255 110.256C328.255 110.048 328.259 109.86 328.267 109.692C328.283 109.524 328.295 109.356 328.303 109.188C328.223 109.26 328.135 109.34 328.039 109.428C327.943 109.508 327.843 109.584 327.739 109.656L327.091 110.124L326.671 109.536L328.231 108.432H329.107V113.568H328.255V110.256ZM333.499 117.096C332.915 117.096 332.467 116.968 332.155 116.712C331.843 116.456 331.687 116.104 331.687 115.656C331.687 115.328 331.775 115.056 331.951 114.84C332.135 114.624 332.355 114.448 332.611 114.312C332.363 114.152 332.171 113.988 332.035 113.82C331.907 113.644 331.843 113.404 331.843 113.1C331.843 112.812 331.919 112.568 332.071 112.368C332.223 112.168 332.423 112.02 332.671 111.924C332.927 111.82 333.203 111.768 333.499 111.768C333.939 111.768 334.319 111.876 334.639 112.092C334.959 112.3 335.119 112.624 335.119 113.064C335.119 113.36 335.035 113.604 334.867 113.796C334.699 113.988 334.495 114.148 334.255 114.276C334.567 114.404 334.815 114.58 334.999 114.804C335.191 115.02 335.287 115.292 335.287 115.62C335.287 116.068 335.119 116.428 334.783 116.7C334.455 116.964 334.027 117.096 333.499 117.096ZM333.511 113.952C333.743 113.864 333.931 113.756 334.075 113.628C334.227 113.492 334.303 113.312 334.303 113.088C334.303 112.88 334.231 112.72 334.087 112.608C333.943 112.488 333.743 112.428 333.487 112.428C333.231 112.428 333.031 112.488 332.887 112.608C332.743 112.72 332.671 112.88 332.671 113.088C332.671 113.296 332.751 113.468 332.911 113.604C333.071 113.74 333.271 113.856 333.511 113.952ZM333.475 116.424C333.811 116.424 334.059 116.352 334.219 116.208C334.379 116.064 334.459 115.88 334.459 115.656C334.459 115.424 334.367 115.232 334.183 115.08C334.007 114.928 333.767 114.8 333.463 114.696L333.307 114.636C333.043 114.764 332.843 114.908 332.707 115.068C332.571 115.228 332.503 115.424 332.503 115.656C332.503 115.88 332.583 116.064 332.743 116.208C332.903 116.352 333.147 116.424 333.475 116.424ZM340.488 111.312H341.568V117H340.488V111.312ZM340.236 109.272C340.236 109.056 340.312 108.872 340.464 108.72C340.624 108.56 340.812 108.48 341.028 108.48C341.244 108.48 341.428 108.56 341.58 108.72C341.74 108.872 341.82 109.056 341.82 109.272C341.82 109.488 341.74 109.676 341.58 109.836C341.428 109.988 341.244 110.064 341.028 110.064C340.812 110.064 340.624 109.988 340.464 109.836C340.312 109.676 340.236 109.488 340.236 109.272ZM343.287 111.312H344.367V112.188H344.391C344.527 111.884 344.763 111.64 345.099 111.456C345.435 111.264 345.823 111.168 346.263 111.168C346.535 111.168 346.795 111.212 347.043 111.3C347.299 111.38 347.519 111.508 347.703 111.684C347.895 111.86 348.047 112.088 348.159 112.368C348.271 112.64 348.327 112.964 348.327 113.34V117H347.247V113.64C347.247 113.376 347.211 113.152 347.139 112.968C347.067 112.776 346.971 112.624 346.851 112.512C346.731 112.392 346.591 112.308 346.431 112.26C346.279 112.204 346.119 112.176 345.951 112.176C345.727 112.176 345.519 112.212 345.327 112.284C345.135 112.356 344.967 112.472 344.823 112.632C344.679 112.784 344.567 112.98 344.487 113.22C344.407 113.46 344.367 113.744 344.367 114.072V117H343.287V111.312ZM350.807 117.072C350.591 117.072 350.403 116.996 350.243 116.844C350.091 116.684 350.015 116.496 350.015 116.28C350.015 116.064 350.091 115.88 350.243 115.728C350.403 115.568 350.591 115.488 350.807 115.488C351.023 115.488 351.207 115.568 351.359 115.728C351.519 115.88 351.599 116.064 351.599 116.28C351.599 116.496 351.519 116.684 351.359 116.844C351.207 116.996 351.023 117.072 350.807 117.072ZM358.686 109.584H355.95V108.504H362.574V109.584H359.838V117H358.686V109.584ZM363.801 108.504H366.789C367.333 108.504 367.781 108.58 368.133 108.732C368.485 108.876 368.761 109.064 368.961 109.296C369.169 109.52 369.313 109.776 369.393 110.064C369.473 110.344 369.513 110.616 369.513 110.88C369.513 111.152 369.465 111.416 369.369 111.672C369.273 111.92 369.133 112.148 368.949 112.356C368.773 112.556 368.553 112.728 368.289 112.872C368.033 113.008 367.745 113.092 367.425 113.124L369.837 117H368.397L366.237 113.256H364.953V117H363.801V108.504ZM364.953 112.248H366.465C366.689 112.248 366.909 112.232 367.125 112.2C367.349 112.16 367.545 112.092 367.713 111.996C367.889 111.9 368.029 111.764 368.133 111.588C368.237 111.404 368.289 111.168 368.289 110.88C368.289 110.592 368.237 110.36 368.133 110.184C368.029 110 367.889 109.86 367.713 109.764C367.545 109.668 367.349 109.604 367.125 109.572C366.909 109.532 366.689 109.512 366.465 109.512H364.953V112.248ZM371.389 115.224C371.597 115.536 371.861 115.768 372.181 115.92C372.509 116.064 372.845 116.136 373.189 116.136C373.381 116.136 373.577 116.108 373.777 116.052C373.977 115.988 374.157 115.896 374.317 115.776C374.485 115.656 374.621 115.508 374.725 115.332C374.829 115.156 374.881 114.952 374.881 114.72C374.881 114.392 374.777 114.144 374.569 113.976C374.361 113.8 374.101 113.656 373.789 113.544C373.485 113.424 373.149 113.312 372.781 113.208C372.421 113.096 372.085 112.944 371.773 112.752C371.469 112.56 371.213 112.304 371.005 111.984C370.797 111.656 370.693 111.216 370.693 110.664C370.693 110.416 370.745 110.152 370.849 109.872C370.961 109.592 371.133 109.336 371.365 109.104C371.597 108.872 371.893 108.68 372.253 108.528C372.621 108.368 373.061 108.288 373.573 108.288C374.037 108.288 374.481 108.352 374.905 108.48C375.329 108.608 375.701 108.868 376.021 109.26L375.085 110.112C374.941 109.888 374.737 109.708 374.473 109.572C374.209 109.436 373.909 109.368 373.573 109.368C373.253 109.368 372.985 109.412 372.769 109.5C372.561 109.58 372.393 109.688 372.265 109.824C372.137 109.952 372.045 110.092 371.989 110.244C371.941 110.396 371.917 110.536 371.917 110.664C371.917 111.024 372.021 111.3 372.229 111.492C372.437 111.684 372.693 111.84 372.997 111.96C373.309 112.08 373.645 112.188 374.005 112.284C374.373 112.38 374.709 112.516 375.013 112.692C375.325 112.86 375.585 113.092 375.793 113.388C376.001 113.676 376.105 114.076 376.105 114.588C376.105 114.996 376.025 115.364 375.865 115.692C375.713 116.02 375.505 116.296 375.241 116.52C374.977 116.744 374.665 116.916 374.305 117.036C373.945 117.156 373.561 117.216 373.153 117.216C372.609 117.216 372.093 117.12 371.605 116.928C371.117 116.736 370.729 116.44 370.441 116.04L371.389 115.224Z" fill="black"/>
<path d="M317 121H386" stroke="black" stroke-width="2"/>
<rect width="79" height="16" transform="matrix(0 1 -1 0 425 27)" fill="white"/>
<path d="M420.776 29.0802L419.912 28.0602L420.464 27.5562L421.64 29.0922V29.9442H416.468V29.0802H420.776ZM414.128 35.2362V32.8842H414.824L418.172 35.0802V36.0282H414.92V36.7722H414.128V36.0282H413V35.2362H414.128ZM417.164 35.1642V35.1402L414.92 33.7482V35.1642H417.164ZM421.88 34.2522L421.496 34.9722L412.616 29.7042L413 28.9842L421.88 34.2522ZM417.752 44.3718V42.8238H415.172C415.012 42.8238 414.852 42.8278 414.692 42.8358C414.54 42.8438 414.4 42.8718 414.272 42.9198C414.152 42.9758 414.052 43.0558 413.972 43.1598C413.9 43.2718 413.864 43.4318 413.864 43.6398C413.864 43.7678 413.876 43.8998 413.9 44.0358C413.924 44.1718 413.968 44.2958 414.032 44.4078H413.048C412.976 44.2798 412.928 44.1118 412.904 43.9038C412.872 43.7038 412.856 43.5478 412.856 43.4358C412.856 43.0198 412.912 42.6958 413.024 42.4638C413.144 42.2398 413.296 42.0718 413.48 41.9598C413.664 41.8558 413.868 41.7918 414.092 41.7678C414.324 41.7518 414.556 41.7438 414.788 41.7438H417.752V40.4958H418.688V41.7438H420.284V42.8238H418.688V44.3718H417.752ZM415.844 46.6412C415.556 46.6412 415.288 46.6852 415.04 46.7732C414.8 46.8612 414.592 46.9852 414.416 47.1452C414.248 47.3052 414.112 47.5012 414.008 47.7332C413.912 47.9652 413.864 48.2252 413.864 48.5132C413.864 48.8012 413.912 49.0612 414.008 49.2932C414.112 49.5252 414.248 49.7212 414.416 49.8812C414.592 50.0412 414.8 50.1652 415.04 50.2532C415.288 50.3412 415.556 50.3852 415.844 50.3852C416.132 50.3852 416.396 50.3412 416.636 50.2532C416.884 50.1652 417.092 50.0412 417.26 49.8812C417.436 49.7212 417.572 49.5252 417.668 49.2932C417.772 49.0612 417.824 48.8012 417.824 48.5132C417.824 48.2252 417.772 47.9652 417.668 47.7332C417.572 47.5012 417.436 47.3052 417.26 47.1452C417.092 46.9852 416.884 46.8612 416.636 46.7732C416.396 46.6852 416.132 46.6412 415.844 46.6412ZM415.844 45.4892C416.26 45.4892 416.648 45.5652 417.008 45.7172C417.368 45.8772 417.684 46.0932 417.956 46.3652C418.228 46.6372 418.44 46.9572 418.592 47.3252C418.752 47.6932 418.832 48.0892 418.832 48.5132C418.832 48.9372 418.752 49.3332 418.592 49.7012C418.44 50.0692 418.228 50.3892 417.956 50.6612C417.684 50.9332 417.368 51.1452 417.008 51.2972C416.648 51.4572 416.26 51.5372 415.844 51.5372C415.428 51.5372 415.036 51.4572 414.668 51.2972C414.308 51.1452 413.992 50.9332 413.72 50.6612C413.456 50.3892 413.244 50.0692 413.084 49.7012C412.932 49.3332 412.856 48.9372 412.856 48.5132C412.856 48.0892 412.932 47.6932 413.084 47.3252C413.244 46.9572 413.456 46.6372 413.72 46.3652C413.992 46.0932 414.308 45.8772 414.668 45.7172C415.036 45.5652 415.428 45.4892 415.844 45.4892ZM413 56.7341L421.568 61.9661V62.8661L413 57.6341V56.7341ZM419.744 57.3821C419.952 57.3821 420.14 57.3861 420.308 57.3941C420.476 57.4101 420.644 57.4221 420.812 57.4301C420.74 57.3501 420.66 57.2621 420.572 57.1661C420.492 57.0701 420.416 56.9701 420.344 56.8661L419.876 56.2181L420.464 55.7981L421.568 57.3581V58.2341H416.432V57.3821H419.744ZM412.904 62.6261C412.904 62.0421 413.032 61.5941 413.288 61.2821C413.544 60.9701 413.896 60.8141 414.344 60.8141C414.672 60.8141 414.944 60.9021 415.16 61.0781C415.376 61.2621 415.552 61.4821 415.688 61.7381C415.848 61.4901 416.012 61.2981 416.18 61.1621C416.356 61.0341 416.596 60.9701 416.9 60.9701C417.188 60.9701 417.432 61.0461 417.632 61.1981C417.832 61.3501 417.98 61.5501 418.076 61.7981C418.18 62.0541 418.232 62.3301 418.232 62.6261C418.232 63.0661 418.124 63.4461 417.908 63.7661C417.7 64.0861 417.376 64.2461 416.936 64.2461C416.64 64.2461 416.396 64.1621 416.204 63.9941C416.012 63.8261 415.852 63.6221 415.724 63.3821C415.596 63.6941 415.42 63.9421 415.196 64.1261C414.98 64.3181 414.708 64.4141 414.38 64.4141C413.932 64.4141 413.572 64.2461 413.3 63.9101C413.036 63.5821 412.904 63.1541 412.904 62.6261ZM416.048 62.6381C416.136 62.8701 416.244 63.0581 416.372 63.2021C416.508 63.3541 416.688 63.4301 416.912 63.4301C417.12 63.4301 417.28 63.3581 417.392 63.2141C417.512 63.0701 417.572 62.8701 417.572 62.6141C417.572 62.3581 417.512 62.1581 417.392 62.0141C417.28 61.8701 417.12 61.7981 416.912 61.7981C416.704 61.7981 416.532 61.8781 416.396 62.0381C416.26 62.1981 416.144 62.3981 416.048 62.6381ZM413.576 62.6021C413.576 62.9381 413.648 63.1861 413.792 63.3461C413.936 63.5061 414.12 63.5861 414.344 63.5861C414.576 63.5861 414.768 63.4941 414.92 63.3101C415.072 63.1341 415.2 62.8941 415.304 62.5901L415.364 62.4341C415.236 62.1701 415.092 61.9701 414.932 61.8341C414.772 61.6981 414.576 61.6301 414.344 61.6301C414.12 61.6301 413.936 61.7101 413.792 61.8701C413.648 62.0301 413.576 62.2741 413.576 62.6021ZM418.688 69.6148V70.6948H413V69.6148H418.688ZM420.728 69.3628C420.944 69.3628 421.128 69.4388 421.28 69.5908C421.44 69.7508 421.52 69.9388 421.52 70.1548C421.52 70.3708 421.44 70.5548 421.28 70.7068C421.128 70.8668 420.944 70.9468 420.728 70.9468C420.512 70.9468 420.324 70.8668 420.164 70.7068C420.012 70.5548 419.936 70.3708 419.936 70.1548C419.936 69.9388 420.012 69.7508 420.164 69.5908C420.324 69.4388 420.512 69.3628 420.728 69.3628ZM418.688 72.4137V73.4937H417.812V73.5177C418.116 73.6537 418.36 73.8897 418.544 74.2257C418.736 74.5617 418.832 74.9497 418.832 75.3897C418.832 75.6617 418.788 75.9217 418.7 76.1697C418.62 76.4257 418.492 76.6457 418.316 76.8297C418.14 77.0217 417.912 77.1737 417.632 77.2857C417.36 77.3977 417.036 77.4537 416.66 77.4537H413V76.3737H416.36C416.624 76.3737 416.848 76.3377 417.032 76.2657C417.224 76.1937 417.376 76.0977 417.488 75.9777C417.608 75.8577 417.692 75.7177 417.74 75.5577C417.796 75.4057 417.824 75.2457 417.824 75.0777C417.824 74.8537 417.788 74.6457 417.716 74.4537C417.644 74.2617 417.528 74.0937 417.368 73.9497C417.216 73.8057 417.02 73.6937 416.78 73.6137C416.54 73.5337 416.256 73.4937 415.928 73.4937H413V72.4137H418.688ZM412.928 79.9336C412.928 79.7176 413.004 79.5296 413.156 79.3696C413.316 79.2176 413.504 79.1416 413.72 79.1416C413.936 79.1416 414.12 79.2176 414.272 79.3696C414.432 79.5296 414.512 79.7176 414.512 79.9336C414.512 80.1496 414.432 80.3336 414.272 80.4856C414.12 80.6456 413.936 80.7256 413.72 80.7256C413.504 80.7256 413.316 80.6456 413.156 80.4856C413.004 80.3336 412.928 80.1496 412.928 79.9336ZM420.416 87.8133V85.0773H421.496V91.7013H420.416V88.9653H413V87.8133H420.416ZM421.496 92.9279V95.9159C421.496 96.4599 421.42 96.9079 421.268 97.2599C421.124 97.6119 420.936 97.8879 420.704 98.0879C420.48 98.2959 420.224 98.4399 419.936 98.5199C419.656 98.5999 419.384 98.6399 419.12 98.6399C418.848 98.6399 418.584 98.5919 418.328 98.4959C418.08 98.3999 417.852 98.2599 417.644 98.0759C417.444 97.8999 417.272 97.6799 417.128 97.4159C416.992 97.1599 416.908 96.8719 416.876 96.5519L413 98.9639V97.5239L416.744 95.3639V94.0799H413V92.9279H421.496ZM417.752 94.0799V95.5919C417.752 95.8159 417.768 96.0359 417.8 96.2519C417.84 96.4759 417.908 96.6719 418.004 96.8399C418.1 97.0159 418.236 97.1559 418.412 97.2599C418.596 97.3639 418.832 97.4159 419.12 97.4159C419.408 97.4159 419.64 97.3639 419.816 97.2599C420 97.1559 420.14 97.0159 420.236 96.8399C420.332 96.6719 420.396 96.4759 420.428 96.2519C420.468 96.0359 420.488 95.8159 420.488 95.5919V94.0799H417.752ZM414.776 100.516C414.464 100.724 414.232 100.988 414.08 101.308C413.936 101.636 413.864 101.972 413.864 102.316C413.864 102.508 413.892 102.704 413.948 102.904C414.012 103.104 414.104 103.284 414.224 103.444C414.344 103.612 414.492 103.748 414.668 103.852C414.844 103.956 415.048 104.008 415.28 104.008C415.608 104.008 415.856 103.904 416.024 103.696C416.2 103.488 416.344 103.228 416.456 102.916C416.576 102.612 416.688 102.276 416.792 101.908C416.904 101.548 417.056 101.212 417.248 100.9C417.44 100.596 417.696 100.34 418.016 100.132C418.344 99.9239 418.784 99.8199 419.336 99.8199C419.584 99.8199 419.848 99.8719 420.128 99.9759C420.408 100.088 420.664 100.26 420.896 100.492C421.128 100.724 421.32 101.02 421.472 101.38C421.632 101.748 421.712 102.188 421.712 102.7C421.712 103.164 421.648 103.608 421.52 104.032C421.392 104.456 421.132 104.828 420.74 105.148L419.888 104.212C420.112 104.068 420.292 103.864 420.428 103.6C420.564 103.336 420.632 103.036 420.632 102.7C420.632 102.38 420.588 102.112 420.5 101.896C420.42 101.688 420.312 101.52 420.176 101.392C420.048 101.264 419.908 101.172 419.756 101.116C419.604 101.068 419.464 101.044 419.336 101.044C418.976 101.044 418.7 101.148 418.508 101.356C418.316 101.564 418.16 101.82 418.04 102.124C417.92 102.436 417.812 102.772 417.716 103.132C417.62 103.5 417.484 103.836 417.308 104.14C417.14 104.452 416.908 104.712 416.612 104.92C416.324 105.128 415.924 105.232 415.412 105.232C415.004 105.232 414.636 105.152 414.308 104.992C413.98 104.84 413.704 104.632 413.48 104.368C413.256 104.104 413.084 103.792 412.964 103.432C412.844 103.072 412.784 102.688 412.784 102.28C412.784 101.736 412.88 101.22 413.072 100.732C413.264 100.244 413.56 99.8559 413.96 99.5679L414.776 100.516Z" fill="black"/>
<path d="M409 25V108" stroke="black" stroke-width="2"/>
<rect width="35" height="16" transform="matrix(0 1 -1 0 271 146.5)" fill="white"/>
<path d="M267.496 148.627H262.288C262.024 148.627 261.748 148.663 261.46 148.735C261.18 148.807 260.92 148.927 260.68 149.095C260.44 149.263 260.244 149.483 260.092 149.755C259.94 150.027 259.864 150.363 259.864 150.763C259.864 151.163 259.94 151.499 260.092 151.771C260.244 152.043 260.44 152.263 260.68 152.431C260.92 152.599 261.18 152.719 261.46 152.791C261.748 152.863 262.024 152.899 262.288 152.899H267.496V154.051H262.108C261.612 154.051 261.16 153.967 260.752 153.799C260.352 153.631 260.004 153.399 259.708 153.103C259.412 152.807 259.184 152.459 259.024 152.059C258.864 151.659 258.784 151.227 258.784 150.763C258.784 150.299 258.864 149.867 259.024 149.467C259.184 149.067 259.412 148.719 259.708 148.423C260.004 148.127 260.352 147.895 260.752 147.727C261.16 147.559 261.612 147.475 262.108 147.475H267.496V148.627ZM260.776 156.332C260.464 156.54 260.232 156.804 260.08 157.124C259.936 157.452 259.864 157.788 259.864 158.132C259.864 158.324 259.892 158.52 259.948 158.72C260.012 158.92 260.104 159.1 260.224 159.26C260.344 159.428 260.492 159.564 260.668 159.668C260.844 159.772 261.048 159.824 261.28 159.824C261.608 159.824 261.856 159.72 262.024 159.512C262.2 159.304 262.344 159.044 262.456 158.732C262.576 158.428 262.688 158.092 262.792 157.724C262.904 157.364 263.056 157.028 263.248 156.716C263.44 156.412 263.696 156.156 264.016 155.948C264.344 155.74 264.784 155.636 265.336 155.636C265.584 155.636 265.848 155.688 266.128 155.792C266.408 155.904 266.664 156.076 266.896 156.308C267.128 156.54 267.32 156.836 267.472 157.196C267.632 157.564 267.712 158.004 267.712 158.516C267.712 158.98 267.648 159.424 267.52 159.848C267.392 160.272 267.132 160.644 266.74 160.964L265.888 160.028C266.112 159.884 266.292 159.68 266.428 159.416C266.564 159.152 266.632 158.852 266.632 158.516C266.632 158.196 266.588 157.928 266.5 157.712C266.42 157.504 266.312 157.336 266.176 157.208C266.048 157.08 265.908 156.988 265.756 156.932C265.604 156.884 265.464 156.86 265.336 156.86C264.976 156.86 264.7 156.964 264.508 157.172C264.316 157.38 264.16 157.636 264.04 157.94C263.92 158.252 263.812 158.588 263.716 158.948C263.62 159.316 263.484 159.652 263.308 159.956C263.14 160.268 262.908 160.528 262.612 160.736C262.324 160.944 261.924 161.048 261.412 161.048C261.004 161.048 260.636 160.968 260.308 160.808C259.98 160.656 259.704 160.448 259.48 160.184C259.256 159.92 259.084 159.608 258.964 159.248C258.844 158.888 258.784 158.504 258.784 158.096C258.784 157.552 258.88 157.036 259.072 156.548C259.264 156.06 259.56 155.672 259.96 155.384L260.776 156.332ZM267.496 162.748V165.7C267.496 166.068 267.452 166.408 267.364 166.72C267.276 167.04 267.144 167.312 266.968 167.536C266.8 167.768 266.58 167.948 266.308 168.076C266.044 168.212 265.732 168.28 265.372 168.28C264.884 168.28 264.484 168.144 264.172 167.872C263.868 167.6 263.644 167.248 263.5 166.816H263.476C263.46 167.072 263.392 167.312 263.272 167.536C263.16 167.76 263.008 167.952 262.816 168.112C262.632 168.28 262.416 168.412 262.168 168.508C261.92 168.604 261.652 168.652 261.364 168.652C260.98 168.652 260.64 168.572 260.344 168.412C260.056 168.26 259.812 168.048 259.612 167.776C259.412 167.504 259.26 167.188 259.156 166.828C259.052 166.468 259 166.08 259 165.664V162.748H267.496ZM263.968 163.9V165.472C263.968 165.688 263.988 165.892 264.028 166.084C264.076 166.276 264.152 166.444 264.256 166.588C264.36 166.732 264.492 166.844 264.652 166.924C264.812 167.012 265.008 167.056 265.24 167.056C265.576 167.056 265.868 166.948 266.116 166.732C266.364 166.516 266.488 166.176 266.488 165.712V163.9H263.968ZM260.008 163.9V165.592C260.008 165.768 260.024 165.96 260.056 166.168C260.096 166.384 260.168 166.584 260.272 166.768C260.384 166.952 260.532 167.108 260.716 167.236C260.9 167.364 261.144 167.428 261.448 167.428C261.952 167.428 262.328 167.264 262.576 166.936C262.832 166.608 262.96 166.164 262.96 165.604V163.9H260.008ZM261.4 172.587V169.635H262.408V172.587H261.4ZM265.66 180.02C265.972 179.78 266.212 179.476 266.38 179.108C266.548 178.74 266.632 178.36 266.632 177.968C266.632 177.488 266.54 177.052 266.356 176.66C266.18 176.276 265.936 175.944 265.624 175.664C265.312 175.392 264.944 175.18 264.52 175.028C264.104 174.876 263.656 174.8 263.176 174.8C262.728 174.8 262.304 174.872 261.904 175.016C261.504 175.16 261.152 175.368 260.848 175.64C260.544 175.912 260.304 176.244 260.128 176.636C259.952 177.028 259.864 177.472 259.864 177.968C259.864 178.456 259.964 178.884 260.164 179.252C260.364 179.62 260.644 179.932 261.004 180.188L260.272 181.16C260.184 181.096 260.056 180.984 259.888 180.824C259.728 180.664 259.564 180.452 259.396 180.188C259.236 179.924 259.096 179.604 258.976 179.228C258.848 178.86 258.784 178.432 258.784 177.944C258.784 177.272 258.912 176.664 259.168 176.12C259.424 175.584 259.76 175.124 260.176 174.74C260.592 174.364 261.06 174.076 261.58 173.876C262.108 173.676 262.64 173.576 263.176 173.576C263.832 173.576 264.436 173.684 264.988 173.9C265.548 174.116 266.028 174.416 266.428 174.8C266.836 175.192 267.152 175.66 267.376 176.204C267.6 176.748 267.712 177.348 267.712 178.004C267.712 178.564 267.604 179.112 267.388 179.648C267.172 180.192 266.84 180.636 266.392 180.98L265.66 180.02Z" fill="black"/>
<path d="M255 133V195" stroke="black" stroke-width="2"/>
<rect width="57" height="16" transform="matrix(0 1 -1 0 425 135.5)" fill="white"/>
<path d="M421.496 136.549V138.265L415.064 140.965V141.013L421.496 143.689V145.405H413V144.253H419.984V144.229L413 141.361V140.593L419.984 137.725V137.701H413V136.549H421.496ZM418.688 147.316V148.396H413V147.316H418.688ZM420.728 147.064C420.944 147.064 421.128 147.14 421.28 147.292C421.44 147.452 421.52 147.64 421.52 147.856C421.52 148.072 421.44 148.256 421.28 148.408C421.128 148.568 420.944 148.648 420.728 148.648C420.512 148.648 420.324 148.568 420.164 148.408C420.012 148.256 419.936 148.072 419.936 147.856C419.936 147.64 420.012 147.452 420.164 147.292C420.324 147.14 420.512 147.064 420.728 147.064ZM417.176 154.183C417.384 153.983 417.54 153.771 417.644 153.547C417.756 153.331 417.812 153.071 417.812 152.767C417.812 152.471 417.756 152.211 417.644 151.987C417.54 151.771 417.392 151.587 417.2 151.435C417.016 151.291 416.8 151.179 416.552 151.099C416.312 151.027 416.06 150.991 415.796 150.991C415.532 150.991 415.28 151.035 415.04 151.123C414.808 151.211 414.604 151.335 414.428 151.495C414.252 151.655 414.112 151.847 414.008 152.071C413.912 152.295 413.864 152.547 413.864 152.827C413.864 153.131 413.916 153.391 414.02 153.607C414.132 153.823 414.292 154.023 414.5 154.207L413.732 154.975C413.42 154.695 413.196 154.367 413.06 153.991C412.924 153.623 412.856 153.231 412.856 152.815C412.856 152.375 412.928 151.971 413.072 151.603C413.216 151.243 413.416 150.931 413.672 150.667C413.936 150.403 414.248 150.199 414.608 150.055C414.976 149.911 415.38 149.839 415.82 149.839C416.26 149.839 416.664 149.911 417.032 150.055C417.4 150.199 417.716 150.399 417.98 150.655C418.244 150.919 418.448 151.231 418.592 151.591C418.744 151.959 418.82 152.367 418.82 152.815C418.82 153.231 418.744 153.627 418.592 154.003C418.448 154.387 418.224 154.719 417.92 154.999L417.176 154.183ZM418.688 155.904V156.984H417.812V157.008C417.964 157.08 418.1 157.176 418.22 157.296C418.348 157.416 418.456 157.548 418.544 157.692C418.632 157.844 418.7 158.008 418.748 158.184C418.804 158.36 418.832 158.536 418.832 158.712C418.832 158.888 418.808 159.048 418.76 159.192L417.596 159.144C417.62 159.056 417.64 158.968 417.656 158.88C417.672 158.792 417.68 158.704 417.68 158.616C417.68 158.088 417.532 157.684 417.236 157.404C416.94 157.124 416.48 156.984 415.856 156.984H413V155.904H418.688ZM415.844 161.01C415.556 161.01 415.288 161.054 415.04 161.142C414.8 161.23 414.592 161.354 414.416 161.514C414.248 161.674 414.112 161.87 414.008 162.102C413.912 162.334 413.864 162.594 413.864 162.882C413.864 163.17 413.912 163.43 414.008 163.662C414.112 163.894 414.248 164.09 414.416 164.25C414.592 164.41 414.8 164.534 415.04 164.622C415.288 164.71 415.556 164.754 415.844 164.754C416.132 164.754 416.396 164.71 416.636 164.622C416.884 164.534 417.092 164.41 417.26 164.25C417.436 164.09 417.572 163.894 417.668 163.662C417.772 163.43 417.824 163.17 417.824 162.882C417.824 162.594 417.772 162.334 417.668 162.102C417.572 161.87 417.436 161.674 417.26 161.514C417.092 161.354 416.884 161.23 416.636 161.142C416.396 161.054 416.132 161.01 415.844 161.01ZM415.844 159.858C416.26 159.858 416.648 159.934 417.008 160.086C417.368 160.246 417.684 160.462 417.956 160.734C418.228 161.006 418.44 161.326 418.592 161.694C418.752 162.062 418.832 162.458 418.832 162.882C418.832 163.306 418.752 163.702 418.592 164.07C418.44 164.438 418.228 164.758 417.956 165.03C417.684 165.302 417.368 165.514 417.008 165.666C416.648 165.826 416.26 165.906 415.844 165.906C415.428 165.906 415.036 165.826 414.668 165.666C414.308 165.514 413.992 165.302 413.72 165.03C413.456 164.758 413.244 164.438 413.084 164.07C412.932 163.702 412.856 163.306 412.856 162.882C412.856 162.458 412.932 162.062 413.084 161.694C413.244 161.326 413.456 161.006 413.72 160.734C413.992 160.462 414.308 160.246 414.668 160.086C415.036 159.934 415.428 159.858 415.844 159.858ZM421.496 171.871H416.288C416.024 171.871 415.748 171.907 415.46 171.979C415.18 172.051 414.92 172.171 414.68 172.339C414.44 172.507 414.244 172.727 414.092 172.999C413.94 173.271 413.864 173.607 413.864 174.007C413.864 174.407 413.94 174.743 414.092 175.015C414.244 175.287 414.44 175.507 414.68 175.675C414.92 175.843 415.18 175.963 415.46 176.035C415.748 176.107 416.024 176.143 416.288 176.143H421.496V177.295H416.108C415.612 177.295 415.16 177.211 414.752 177.043C414.352 176.875 414.004 176.643 413.708 176.347C413.412 176.051 413.184 175.703 413.024 175.303C412.864 174.903 412.784 174.471 412.784 174.007C412.784 173.543 412.864 173.111 413.024 172.711C413.184 172.311 413.412 171.963 413.708 171.667C414.004 171.371 414.352 171.139 414.752 170.971C415.16 170.803 415.612 170.719 416.108 170.719H421.496V171.871ZM414.776 179.576C414.464 179.784 414.232 180.048 414.08 180.368C413.936 180.696 413.864 181.032 413.864 181.376C413.864 181.568 413.892 181.764 413.948 181.964C414.012 182.164 414.104 182.344 414.224 182.504C414.344 182.672 414.492 182.808 414.668 182.912C414.844 183.016 415.048 183.068 415.28 183.068C415.608 183.068 415.856 182.964 416.024 182.756C416.2 182.548 416.344 182.288 416.456 181.976C416.576 181.672 416.688 181.336 416.792 180.968C416.904 180.608 417.056 180.272 417.248 179.96C417.44 179.656 417.696 179.4 418.016 179.192C418.344 178.984 418.784 178.88 419.336 178.88C419.584 178.88 419.848 178.932 420.128 179.036C420.408 179.148 420.664 179.32 420.896 179.552C421.128 179.784 421.32 180.08 421.472 180.44C421.632 180.808 421.712 181.248 421.712 181.76C421.712 182.224 421.648 182.668 421.52 183.092C421.392 183.516 421.132 183.888 420.74 184.208L419.888 183.272C420.112 183.128 420.292 182.924 420.428 182.66C420.564 182.396 420.632 182.096 420.632 181.76C420.632 181.44 420.588 181.172 420.5 180.956C420.42 180.748 420.312 180.58 420.176 180.452C420.048 180.324 419.908 180.232 419.756 180.176C419.604 180.128 419.464 180.104 419.336 180.104C418.976 180.104 418.7 180.208 418.508 180.416C418.316 180.624 418.16 180.88 418.04 181.184C417.92 181.496 417.812 181.832 417.716 182.192C417.62 182.56 417.484 182.896 417.308 183.2C417.14 183.512 416.908 183.772 416.612 183.98C416.324 184.188 415.924 184.292 415.412 184.292C415.004 184.292 414.636 184.212 414.308 184.052C413.98 183.9 413.704 183.692 413.48 183.428C413.256 183.164 413.084 182.852 412.964 182.492C412.844 182.132 412.784 181.748 412.784 181.34C412.784 180.796 412.88 180.28 413.072 179.792C413.264 179.304 413.56 178.916 413.96 178.628L414.776 179.576ZM421.496 185.992V188.944C421.496 189.312 421.452 189.652 421.364 189.964C421.276 190.284 421.144 190.556 420.968 190.78C420.8 191.012 420.58 191.192 420.308 191.32C420.044 191.456 419.732 191.524 419.372 191.524C418.884 191.524 418.484 191.388 418.172 191.116C417.868 190.844 417.644 190.492 417.5 190.06H417.476C417.46 190.316 417.392 190.556 417.272 190.78C417.16 191.004 417.008 191.196 416.816 191.356C416.632 191.524 416.416 191.656 416.168 191.752C415.92 191.848 415.652 191.896 415.364 191.896C414.98 191.896 414.64 191.816 414.344 191.656C414.056 191.504 413.812 191.292 413.612 191.02C413.412 190.748 413.26 190.432 413.156 190.072C413.052 189.712 413 189.324 413 188.908V185.992H421.496ZM417.968 187.144V188.716C417.968 188.932 417.988 189.136 418.028 189.328C418.076 189.52 418.152 189.688 418.256 189.832C418.36 189.976 418.492 190.088 418.652 190.168C418.812 190.256 419.008 190.3 419.24 190.3C419.576 190.3 419.868 190.192 420.116 189.976C420.364 189.76 420.488 189.42 420.488 188.956V187.144H417.968ZM414.008 187.144V188.836C414.008 189.012 414.024 189.204 414.056 189.412C414.096 189.628 414.168 189.828 414.272 190.012C414.384 190.196 414.532 190.352 414.716 190.48C414.9 190.608 415.144 190.672 415.448 190.672C415.952 190.672 416.328 190.508 416.576 190.18C416.832 189.852 416.96 189.408 416.96 188.848V187.144H414.008Z" fill="black"/>
<path d="M409 133V195" stroke="black" stroke-width="2"/>
<rect width="72" height="16" transform="translate(437.5 105)" fill="white"/>
<path d="M439.148 117L444.38 108.432H445.28L440.048 117H439.148ZM439.796 110.256C439.796 110.048 439.8 109.86 439.808 109.692C439.824 109.524 439.836 109.356 439.844 109.188C439.764 109.26 439.676 109.34 439.58 109.428C439.484 109.508 439.384 109.584 439.28 109.656L438.632 110.124L438.212 109.536L439.772 108.432H440.648V113.568H439.796V110.256ZM445.04 117.096C444.456 117.096 444.008 116.968 443.696 116.712C443.384 116.456 443.228 116.104 443.228 115.656C443.228 115.328 443.316 115.056 443.492 114.84C443.676 114.624 443.896 114.448 444.152 114.312C443.904 114.152 443.712 113.988 443.576 113.82C443.448 113.644 443.384 113.404 443.384 113.1C443.384 112.812 443.46 112.568 443.612 112.368C443.764 112.168 443.964 112.02 444.212 111.924C444.468 111.82 444.744 111.768 445.04 111.768C445.48 111.768 445.86 111.876 446.18 112.092C446.5 112.3 446.66 112.624 446.66 113.064C446.66 113.36 446.576 113.604 446.408 113.796C446.24 113.988 446.036 114.148 445.796 114.276C446.108 114.404 446.356 114.58 446.54 114.804C446.732 115.02 446.828 115.292 446.828 115.62C446.828 116.068 446.66 116.428 446.324 116.7C445.996 116.964 445.568 117.096 445.04 117.096ZM445.052 113.952C445.284 113.864 445.472 113.756 445.616 113.628C445.768 113.492 445.844 113.312 445.844 113.088C445.844 112.88 445.772 112.72 445.628 112.608C445.484 112.488 445.284 112.428 445.028 112.428C444.772 112.428 444.572 112.488 444.428 112.608C444.284 112.72 444.212 112.88 444.212 113.088C444.212 113.296 444.292 113.468 444.452 113.604C444.612 113.74 444.812 113.856 445.052 113.952ZM445.016 116.424C445.352 116.424 445.6 116.352 445.76 116.208C445.92 116.064 446 115.88 446 115.656C446 115.424 445.908 115.232 445.724 115.08C445.548 114.928 445.308 114.8 445.004 114.696L444.848 114.636C444.584 114.764 444.384 114.908 444.248 115.068C444.112 115.228 444.044 115.424 444.044 115.656C444.044 115.88 444.124 116.064 444.284 116.208C444.444 116.352 444.688 116.424 445.016 116.424ZM454.993 112.248H453.445V114.828C453.445 114.988 453.449 115.148 453.457 115.308C453.465 115.46 453.493 115.6 453.541 115.728C453.597 115.848 453.677 115.948 453.781 116.028C453.893 116.1 454.053 116.136 454.261 116.136C454.389 116.136 454.521 116.124 454.657 116.1C454.793 116.076 454.917 116.032 455.029 115.968V116.952C454.901 117.024 454.733 117.072 454.525 117.096C454.325 117.128 454.169 117.144 454.057 117.144C453.641 117.144 453.317 117.088 453.085 116.976C452.861 116.856 452.693 116.704 452.581 116.52C452.477 116.336 452.413 116.132 452.389 115.908C452.373 115.676 452.365 115.444 452.365 115.212V112.248H451.117V111.312H452.365V109.716H453.445V111.312H454.993V112.248ZM457.262 114.156C457.262 114.444 457.306 114.712 457.394 114.96C457.482 115.2 457.606 115.408 457.766 115.584C457.926 115.752 458.122 115.888 458.354 115.992C458.586 116.088 458.846 116.136 459.134 116.136C459.422 116.136 459.682 116.088 459.914 115.992C460.146 115.888 460.342 115.752 460.502 115.584C460.662 115.408 460.786 115.2 460.874 114.96C460.962 114.712 461.006 114.444 461.006 114.156C461.006 113.868 460.962 113.604 460.874 113.364C460.786 113.116 460.662 112.908 460.502 112.74C460.342 112.564 460.146 112.428 459.914 112.332C459.682 112.228 459.422 112.176 459.134 112.176C458.846 112.176 458.586 112.228 458.354 112.332C458.122 112.428 457.926 112.564 457.766 112.74C457.606 112.908 457.482 113.116 457.394 113.364C457.306 113.604 457.262 113.868 457.262 114.156ZM456.11 114.156C456.11 113.74 456.186 113.352 456.338 112.992C456.498 112.632 456.714 112.316 456.986 112.044C457.258 111.772 457.578 111.56 457.946 111.408C458.314 111.248 458.71 111.168 459.134 111.168C459.558 111.168 459.954 111.248 460.322 111.408C460.69 111.56 461.01 111.772 461.282 112.044C461.554 112.316 461.766 112.632 461.918 112.992C462.078 113.352 462.158 113.74 462.158 114.156C462.158 114.572 462.078 114.964 461.918 115.332C461.766 115.692 461.554 116.008 461.282 116.28C461.01 116.544 460.69 116.756 460.322 116.916C459.954 117.068 459.558 117.144 459.134 117.144C458.71 117.144 458.314 117.068 457.946 116.916C457.578 116.756 457.258 116.544 456.986 116.28C456.714 116.008 456.498 115.692 456.338 115.332C456.186 114.964 456.11 114.572 456.11 114.156ZM467.955 109.224L466.935 110.088L466.431 109.536L467.967 108.36H468.819V113.532H467.955V109.224ZM474.111 115.872H471.759V115.176L473.955 111.828H474.903V115.08H475.647V115.872H474.903V117H474.111V115.872ZM474.039 112.836H474.015L472.623 115.08H474.039V112.836ZM473.127 108.12L473.847 108.504L468.579 117.384L467.859 117L473.127 108.12ZM480.283 111.312H481.363V117H480.283V111.312ZM480.031 109.272C480.031 109.056 480.107 108.872 480.259 108.72C480.419 108.56 480.607 108.48 480.823 108.48C481.039 108.48 481.223 108.56 481.375 108.72C481.535 108.872 481.615 109.056 481.615 109.272C481.615 109.488 481.535 109.676 481.375 109.836C481.223 109.988 481.039 110.064 480.823 110.064C480.607 110.064 480.419 109.988 480.259 109.836C480.107 109.676 480.031 109.488 480.031 109.272ZM483.082 111.312H484.162V112.188H484.186C484.322 111.884 484.558 111.64 484.894 111.456C485.23 111.264 485.618 111.168 486.058 111.168C486.33 111.168 486.59 111.212 486.838 111.3C487.094 111.38 487.314 111.508 487.498 111.684C487.69 111.86 487.842 112.088 487.954 112.368C488.066 112.64 488.122 112.964 488.122 113.34V117H487.042V113.64C487.042 113.376 487.006 113.152 486.934 112.968C486.862 112.776 486.766 112.624 486.646 112.512C486.526 112.392 486.386 112.308 486.226 112.26C486.074 112.204 485.914 112.176 485.746 112.176C485.522 112.176 485.314 112.212 485.122 112.284C484.93 112.356 484.762 112.472 484.618 112.632C484.474 112.784 484.362 112.98 484.282 113.22C484.202 113.46 484.162 113.744 484.162 114.072V117H483.082V111.312ZM490.602 117.072C490.386 117.072 490.198 116.996 490.038 116.844C489.886 116.684 489.81 116.496 489.81 116.28C489.81 116.064 489.886 115.88 490.038 115.728C490.198 115.568 490.386 115.488 490.602 115.488C490.818 115.488 491.002 115.568 491.154 115.728C491.314 115.88 491.394 116.064 491.394 116.28C491.394 116.496 491.314 116.684 491.154 116.844C491.002 116.996 490.818 117.072 490.602 117.072ZM498.481 109.584H495.745V108.504H502.369V109.584H499.633V117H498.481V109.584ZM503.848 115.224C504.056 115.536 504.32 115.768 504.64 115.92C504.968 116.064 505.304 116.136 505.648 116.136C505.84 116.136 506.036 116.108 506.236 116.052C506.436 115.988 506.616 115.896 506.776 115.776C506.944 115.656 507.08 115.508 507.184 115.332C507.288 115.156 507.34 114.952 507.34 114.72C507.34 114.392 507.236 114.144 507.028 113.976C506.82 113.8 506.56 113.656 506.248 113.544C505.944 113.424 505.608 113.312 505.24 113.208C504.88 113.096 504.544 112.944 504.232 112.752C503.928 112.56 503.672 112.304 503.464 111.984C503.256 111.656 503.152 111.216 503.152 110.664C503.152 110.416 503.204 110.152 503.308 109.872C503.42 109.592 503.592 109.336 503.824 109.104C504.056 108.872 504.352 108.68 504.712 108.528C505.08 108.368 505.52 108.288 506.032 108.288C506.496 108.288 506.94 108.352 507.364 108.48C507.788 108.608 508.16 108.868 508.48 109.26L507.544 110.112C507.4 109.888 507.196 109.708 506.932 109.572C506.668 109.436 506.368 109.368 506.032 109.368C505.712 109.368 505.444 109.412 505.228 109.5C505.02 109.58 504.852 109.688 504.724 109.824C504.596 109.952 504.504 110.092 504.448 110.244C504.4 110.396 504.376 110.536 504.376 110.664C504.376 111.024 504.48 111.3 504.688 111.492C504.896 111.684 505.152 111.84 505.456 111.96C505.768 112.08 506.104 112.188 506.464 112.284C506.832 112.38 507.168 112.516 507.472 112.692C507.784 112.86 508.044 113.092 508.252 113.388C508.46 113.676 508.564 114.076 508.564 114.588C508.564 114.996 508.484 115.364 508.324 115.692C508.172 116.02 507.964 116.296 507.7 116.52C507.436 116.744 507.124 116.916 506.764 117.036C506.404 117.156 506.02 117.216 505.612 117.216C505.068 117.216 504.552 117.12 504.064 116.928C503.576 116.736 503.188 116.44 502.9 116.04L503.848 115.224Z" fill="black"/>
<path d="M432 121H515" stroke="black" stroke-width="2"/>
</svg>
